<svg xmlns="http://www.w3.org/2000/svg" viewBox="0 0 145 130" aria-hidden="true" role="img"><linearGradient id="contract-search-78-a-uid-1" gradientUnits="userSpaceOnUse" x1="47.385" y1="13.853" x2="79.999" y2="115.315" gradientTransform="matrix(1 0 0 -1 0 130)"><stop offset=".35" stop-color="#f2f7f2"></stop><stop offset=".79" stop-color="#dde6dd"></stop><stop offset=".93" stop-color="#d5e0d5"></stop></linearGradient><path d="M99.8 10c-7.4-3.3-18.5-8.3-20.2-9-3.2-1.4-6.7-1-9.7-.7L14 6.3 27.2 130l87.5-9.3-11.3-106.1c-.1-1.1-.6-2.4-2.1-3.6-.4-.4-1-.7-1.5-1z" fill="url(#contract-search-78-a-uid-1)"></path><linearGradient id="contract-search-78-b-uid-1" gradientUnits="userSpaceOnUse" x1="85.705" y1="114.852" x2="90.301" y2="123.85" gradientTransform="matrix(1 0 0 -1 0 130)"><stop offset=".264" stop-color="#e4ebe4"></stop><stop offset="1" stop-color="#f2f7f2"></stop></linearGradient><path d="M99.8 10c-7.5-3.5-18.2-8.2-20.2-9 3.6 1.7 11.1 14.5 11.1 14.5 2.2-1 5.7-7.5 10.4-4.4-.2-.5-.8-.8-1.3-1.1z" fill="url(#contract-search-78-b-uid-1)"></path><path d="M45.3 15.4l-15.4 1.7c-.3 0-.7-.1-.7-.6 0-.3.1-.7.6-.7l15.4-1.7c.3 0 .7.1.7.6s-.4.7-.6.7zm.8 2.8c0-.3-.3-.6-.7-.6L30 19.3c-.3 0-.6.3-.6.7 0 .3.3.6.7.6l15.4-1.7c.5-.1.7-.4.6-.7zm.4 3.4c0-.3-.3-.6-.7-.6l-15.4 1.7c-.3 0-.6.3-.6.7 0 .3.3.6.7.6L46 22.2c.2 0 .5-.2.5-.6 0 .1 0 0 0 0zm45.3 16.8c0-.3-.3-.6-.7-.6l-58.4 6.3c-.3 0-.6.3-.6.7 0 .3.3.6.7.6l58.4-6.3c.5 0 .6-.3.6-.7zm.7 6.8c0-.3-.3-.6-.7-.6l-58.4 6.3c-.3 0-.6.3-.6.7 0 .3.3.6.7.6L92 45.9c.4 0 .7-.3.5-.7zm.9 6.8c0-.3-.3-.6-.7-.6l-58.4 6.3c-.3 0-.6.3-.6.7 0 .3.3.6.7.6l58.4-6.3c.3 0 .6-.3.6-.7zm.7 6.8c0-.3-.3-.6-.7-.6L35 64.5c-.3 0-.6.3-.6.7 0 .3.3.6.7.6l58.4-6.3c.3 0 .6-.3.6-.7zm.7 6.8c0-.3-.3-.6-.7-.6l-58.4 6.3c-.3 0-.6.3-.6.7 0 .3.3.6.7.6l58.4-6.3c.3 0 .6-.3.6-.7zm-21.2 9.2c0-.3-.3-.6-.7-.6l-36.6 3.9c-.3 0-.6.3-.6.7 0 .3.3.6.7.6L73 75.5c.4 0 .6-.3.6-.7zm-17.9 33c0-.3-.3-.6-.7-.6l-15.3 1.7c-.3 0-.6.3-.6.7 0 .3.3.6.7.6l15.4-1.7c.4-.2.5-.5.5-.7zm21.1-5.7c0-.2-.1-.2 0 0-.1-.1-.1-.1-.3-.1l-37.7 4c-.1 0-.1.1-.1.1v.1c0 .1.1.1.1.1l37.7-4c.1 0 .1-.1.1-.1l.2-.1zm-37.4.5c-.1.4.1 1 .6 1.1.1.1.3.1.4.1.3 0 .6-.1.8-.4l4.9-6c.1-.1.4-.3.6 0l.1.1 2.1 5.4c.1.6.8.8 1.4.6.3-.1.6-.4.7-.7l3.5-14.2c0-.1 0-.3-.3-.4-.1 0-.3 0-.4.3l-3.5 14.2c0 .3-.3.4-.6.3-.1 0-.3-.1-.3-.3l-2.1-5.4c-.1-.6-.8-.8-1.4-.6-.1 0-.3.1-.4.3l-4.9 6c-.1.1-.4.3-.6.1-.1-.1-.1-.3-.1-.4l1.9-8.3c.8-.3 1.7-.7 2.4-1.1.7-.4 1-1.4.4-2.1-.4-.7-1.4-1-2.1-.4-.3.3-.6.6-.7 1l-.6 2.4c-2.1.7-4.4.7-6.5 0l-.3-.2c-.1 0-.3 0-.4.1 0 .1 0 .3.1.4l.4.1c2.1.7 4.4.8 6.5.1l-1.6 7.9zm3.1-10.8c.1-.6.6-.8 1.1-.7.1 0 .4.1.6.3.3.4.3 1-.1 1.3l-.1.1c-.6.4-1.3.7-1.8 1l.3-2zm10.6 9.1s.1.1.3.1c.1 0 .1 0 .1-.1l1.8-1.5c.4-.4 1.1-.3 1.4.1.4.6 1 .7 1.7.6l2.4-.6c.6 1.1 1.8 1.7 3.1 1.5l9.2-1.1c.1 0 .3-.1.3-.3s-.1-.3-.3-.3l-9.2 1.1c-1 .1-1.8-.3-2.4-1.1.4-.1.7-.6.6-1 0-.1-.1-.3-.3-.4-.4-.3-.8-.3-1.1.1-.1.1-.1.4-.1.7v.3l-2.2.6c-.4.1-.8 0-1.1-.4-.6-.7-1.5-.8-2.4-.3l-1.7 1.7c-.3.1-.3.3-.1.3zm8-2.5c0-.1.2-.1 0 0h.3c.1.1.1.3 0 .3 0 0-.1 0-.1.1h-.1v-.3c-.2.1-.1-.1-.1-.1z" fill="#f66dbc"></path><path d="M91.8 14.6c1.1 1.4 1.9 2.2 1.9 2.2 1.7-1 3.5-5.6 6.7-6.4-3.7-1.5-6.5 2.4-8.6 4.2z" fill="#d5e0d5"></path><path d="M114.5 119.2L97.1 95.5c1.2-.9 1.6-2.6.8-3.7l-.1-.2c-.2-.3-.4-.5-.6-.7 2.9-3.1 4.9-6.8 5.8-10.8 1.4-5.9.5-12.3-3-17.8l-1.9-3c-6.9-11-21.5-14.4-32.5-7.5s-14.4 21.5-7.5 32.5l1.9 3c5.8 9.2 16.9 13 26.9 10 .1.3.2.5.3.8l.1.2c.8 1.2 2.5 1.7 3.8 1l11.2 22.8 12.3-1.3-.1-1.6z" fill="#c3d2c3"></path><path d="M61.7 54.8c-.5.5-.9.9-1.3 1.4l31.7-3.4c-.5-.4-1.1-.8-1.6-1.1l-28.8 3.1zm32.4 4c0-.3-.3-.6-.7-.6l-36.9 3.9c-.2.4-.4.9-.5 1.3l37.5-4c.3.1.6-.2.6-.6zM72.9 74.2l-18 1.9.3 1.2 17.9-1.9c.3 0 .6-.3.6-.7-.1-.2-.3-.5-.8-.5zm21.9-8.6c0-.3-.3-.6-.7-.6l-39.4 4.2c0 .4-.1.8-.1 1.3l39.7-4.2c.2 0 .5-.3.5-.7z" fill="#d85ba9"></path><linearGradient id="contract-search-78-c-uid-1" gradientUnits="userSpaceOnUse" x1="358.851" y1="402.78" x2="400.789" y2="402.78" gradientTransform="rotate(5.371 3778.212 -2953.066) scale(.99999)"><stop offset="0" stop-color="#fff"></stop><stop offset=".64" stop-color="#fdfefd"></stop><stop offset=".92" stop-color="#f6f9f6"></stop><stop offset="1" stop-color="#f2f7f2"></stop></linearGradient><path d="M82.6 49.3c11.5 1.1 20 11.2 19 22.6-1.1 11.4-11.3 19.7-22.8 18.7-11.5-1.1-20-11.2-19-22.6S71 48.2 82.6 49.3z" fill="url(#contract-search-78-c-uid-1)"></path><circle cx="80.7" cy="69.8" r="20.6" fill="none"></circle><radialGradient id="contract-search-78-d-uid-1" cx="-2061.527" cy="-1719.963" r="20.057" gradientTransform="matrix(1.8021 .1694 -.1676 1.7821 3498.956 3478.11)" gradientUnits="userSpaceOnUse"><stop offset="0" stop-color="#01cdbe" stop-opacity="0"></stop><stop offset="1" stop-color="#01cdbe"></stop></radialGradient><path d="M82.6 49.3c11.5 1.1 20 11.2 19 22.6-1.1 11.4-11.3 19.7-22.8 18.7-11.5-1.1-20-11.2-19-22.6S71 48.2 82.6 49.3z" opacity=".3" fill="url(#contract-search-78-d-uid-1)"></path><linearGradient id="contract-search-78-e-uid-1" gradientUnits="userSpaceOnUse" x1="365.106" y1="388.031" x2="394.602" y2="417.528" gradientTransform="rotate(5.371 3778.212 -2953.066) scale(.99999)"><stop offset="0" stop-color="#01cdbe" stop-opacity=".5"></stop><stop offset=".05" stop-color="#01cdbe" stop-opacity=".51"></stop><stop offset=".08" stop-color="#01cdbe" stop-opacity=".56"></stop><stop offset=".11" stop-color="#01cdbe" stop-opacity=".63"></stop><stop offset=".13" stop-color="#01cdbe" stop-opacity=".73"></stop><stop offset=".15" stop-color="#01cdbe" stop-opacity=".86"></stop><stop offset=".17" stop-color="#01cdbe"></stop><stop offset=".18" stop-color="#01cdbe" stop-opacity=".97"></stop><stop offset=".28" stop-color="#01cdbe" stop-opacity=".77"></stop><stop offset=".38" stop-color="#01cdbe" stop-opacity=".62"></stop><stop offset=".46" stop-color="#01cdbe" stop-opacity=".53"></stop><stop offset=".51" stop-color="#01cdbe" stop-opacity=".5"></stop><stop offset=".63" stop-color="#01cdbe" stop-opacity=".51"></stop><stop offset=".71" stop-color="#01cdbe" stop-opacity=".56"></stop><stop offset=".78" stop-color="#01cdbe" stop-opacity=".63"></stop><stop offset=".84" stop-color="#01cdbe" stop-opacity=".73"></stop><stop offset=".89" stop-color="#01cdbe" stop-opacity=".86"></stop><stop offset=".93" stop-color="#01cdbe"></stop></linearGradient><path d="M82.6 49.3c11.5 1.1 20 11.2 19 22.6-1.1 11.4-11.3 19.7-22.8 18.7-11.5-1.1-20-11.2-19-22.6S71 48.2 82.6 49.3z" opacity=".35" fill="url(#contract-search-78-e-uid-1)"></path><path d="M62.9 71.8C64 60.4 74.2 52 85.7 53.1c4.7.4 9.2 2.4 12.6 5.7-3.5-5.4-9.3-8.9-15.7-9.5C71 48.2 60.8 56.6 59.7 68c-.6 6.3 1.8 12.5 6.4 16.9-2.5-3.9-3.6-8.5-3.2-13.1z" opacity=".48" fill="#01cdbe"></path><path d="M101 57.6l-2.3-2.8c-8.3-10-23.2-11.4-33.2-3.1-10 8.3-11.4 23.2-3.1 33.2l2.3 2.8c8.3 10 23.2 11.4 33.2 3.1s11.4-23.1 3.1-33.2zm-4-.2l-.3-.3.3.3zm-36.4 7.7c.1-.5.3-1 .4-1.4-.2.4-.4.9-.4 1.4-.3 1.2-.6 2.6-.6 3.9 0-1.4.3-2.7.6-3.9zm-.6 5.8c0-.6-.1-1.3 0-1.9v1.9zm0 .1c0 .3 0 .6.1.9 0-.3-.1-.6-.1-.9zm5 12.4l.3.3-.3-.3zm28.8 2.4c-8.7 6.6-21.1 4.9-27.7-3.8s-4.9-21.1 3.8-27.7c8.4-6.4 20.4-5 27.2 3.1 6.6 8.8 5.2 21.3-3.3 28.4z" fill="#14a800"></path><linearGradient id="contract-search-78-f-uid-1" gradientUnits="userSpaceOnUse" x1="363.149" y1="407.444" x2="405.888" y2="407.444" gradientTransform="rotate(5.371 3778.212 -2953.066) scale(.99999)"><stop offset=".45" stop-color="#14a800"></stop><stop offset=".61" stop-color="#14a500"></stop><stop offset=".72" stop-color="#149d00"></stop><stop offset=".81" stop-color="#138e00"></stop><stop offset=".89" stop-color="#127900"></stop><stop offset=".93" stop-color="#126b00"></stop></linearGradient><path d="M62.4 84.9c8.3 10 23.2 11.4 33.2 3.1s11.4-23.2 3.1-33.2l2.3 2.8c8.3 10 6.9 24.9-3.1 33.2S73 97.7 64.7 87.7l-2.3-2.8z" fill="url(#contract-search-78-f-uid-1)"></path><radialGradient id="contract-search-78-g-uid-1" cx="-2059.472" cy="-715.019" r="9.22" fx="-2064.416" fy="-715.019" gradientTransform="matrix(1.3923 -1.1346 .479 .5673 3310.463 -1836.653)" gradientUnits="userSpaceOnUse"><stop offset="0" stop-color="#ad8d05"></stop><stop offset=".26" stop-color="#af8e08"></stop><stop offset=".43" stop-color="#b49311"></stop><stop offset=".58" stop-color="#be9b20"></stop><stop offset=".7" stop-color="#caa533"></stop><stop offset=".77" stop-color="#d1ab3f"></stop><stop offset=".89" stop-color="#e5bb5d"></stop><stop offset="1" stop-color="#fccd81"></stop></radialGradient><path d="M102.5 91l-5.2 4.3c-1.2 1-3 .8-4-.4l-.2-.2c-1-1.2-.8-2.9.4-3.9l5.2-4.3c1.2-1 3-.8 4 .4l.2.2c.9 1.1.8 2.8-.4 3.9z" fill="url(#contract-search-78-g-uid-1)"></path><linearGradient id="contract-search-78-h-uid-1" gradientUnits="userSpaceOnUse" x1="411.904" y1="444.275" x2="420.821" y2="435.359" gradientTransform="rotate(5.371 3778.212 -2953.066) scale(.99999)"><stop offset="0" stop-color="#bc5118"></stop><stop offset=".24" stop-color="#b84f18"></stop><stop offset=".46" stop-color="#ad4a17"></stop><stop offset=".67" stop-color="#9b4115"></stop><stop offset=".88" stop-color="#813413"></stop><stop offset="1" stop-color="#6d2b11"></stop></linearGradient><path d="M100.9 90.1c-1.7.7-3.2 2-4.3 3.5-.2.3-.3.8 0 1.1l16.9 25.2c2.2 3 4.6 5.9 7.4 8.4 2.2 2.1 5.6 2.2 7.9.3 2.3-1.8 2.8-5.2 1.2-7.7-2.1-3.1-4.4-6.1-7-8.7l-21-21.9c-.4-.3-.8-.4-1.1-.2z" fill="url(#contract-search-78-h-uid-1)"></path><path d="M102 90.3c-.3-.3-.7-.4-1.1-.2-1.7.7-3.2 2-4.3 3.5-.2.3-.3.8 0 1.1l1.9 2.7c-.6-.8 2.5-8 4.8-5.7l-1.3-1.4z" fill="#6d2b11"></path><linearGradient id="contract-search-78-i-uid-1" gradientUnits="userSpaceOnUse" x1="358.422" y1="409.156" x2="390.258" y2="383.035" gradientTransform="rotate(5.371 3778.212 -2953.066) scale(.99999)"><stop offset="0" stop-color="#126b00"></stop><stop offset="1" stop-color="#14a800"></stop></linearGradient><path d="M68.6 55.3c8.5-7 21.1-6.2 28.5 2.1-.2-.2-.4-.4-.5-.6-7.4-8.6-20.4-9.7-29-2.2-8.4 7.3-9.6 19.9-2.7 28.6.2.2.4.4.5.6-6.8-8.9-5.4-21.4 3.2-28.5z" fill="url(#contract-search-78-i-uid-1)"></path></svg>